<svg width="41" height="40" viewBox="0 0 41 40" fill="none" xmlns="http://www.w3.org/2000/svg">
<path d="M34.3194 0H5.95962C2.71976 0 0.0839844 2.62848 0.0839844 5.85938V34.1406C0.0839844 37.3715 2.71976 40 5.95962 40H34.3194C37.5592 40 40.195 37.3715 40.195 34.1406V5.85938C40.195 2.62848 37.5592 0 34.3194 0ZM37.8448 34.1406C37.8448 36.0791 36.2632 37.6562 34.3194 37.6562H5.95962C4.01577 37.6562 2.43424 36.0791 2.43424 34.1406V5.85938C2.43424 3.9209 4.01577 2.34375 5.95962 2.34375H34.3194C36.2632 2.34375 37.8448 3.9209 37.8448 5.85938V34.1406Z" fill="#070707" stroke="#070707" stroke-width="0.5"/>
</svg>
