<svg width="40" height="41" viewBox="0 0 40 41" fill="none" xmlns="http://www.w3.org/2000/svg">
<path d="M12.167 1.29281H12.667V1.2832H28.5718C34.5363 1.2832 39.4188 6.26789 39.4188 12.3952V29.1692C39.4188 35.2968 34.5361 40.2812 28.5812 40.2812H12.167C6.20108 40.2812 1.31055 35.3048 1.31055 29.1884V12.4048C1.31055 6.27805 6.20188 1.29281 12.167 1.29281ZM3.31887 12.4135V12.4144V29.1981C3.31887 34.1842 7.24643 38.2148 12.167 38.2148H28.5812C33.4844 38.2148 37.4105 34.1827 37.4105 29.1788V12.4048C37.4105 7.4006 33.484 3.36885 28.5718 3.36885H12.167C7.25422 3.36885 3.3288 7.40093 3.31887 12.4135ZM31.4032 8.4829C31.4032 7.89297 31.8573 7.44489 32.4074 7.44489C32.9575 7.44489 33.4115 7.89297 33.4115 8.4829C33.4115 9.07283 32.9575 9.52092 32.4074 9.52092C31.8573 9.52092 31.4032 9.07283 31.4032 8.4829ZM10.3449 20.787C10.3449 15.1313 14.8696 10.5209 20.3741 10.5209C25.8785 10.5209 30.4032 15.1313 30.4032 20.787C30.4032 26.4428 25.8785 31.0532 20.3741 31.0532C14.8696 31.0532 10.3449 26.4428 10.3449 20.787ZM28.3949 20.787C28.3949 16.2534 24.8347 12.597 20.3741 12.597C15.9134 12.597 12.3533 16.2534 12.3533 20.787C12.3533 25.3206 15.9134 28.9771 20.3741 28.9771C24.8347 28.9771 28.3949 25.3206 28.3949 20.787Z" fill="#070707" stroke="#070707"/>
</svg>
